<svg xmlns="http://www.w3.org/2000/svg" viewBox="0 0 64 64">
  <rect width="64" height="64" rx="16" fill="#F6F4EF"/>
  <circle cx="32" cy="36" r="18" fill="#DAA43A" opacity=".12"/>
  <path d="M11 42 C8 27 18 12 33 12 C48 12 58 26 53 41" fill="none" stroke="#DAA43A" stroke-width="1.6" stroke-linecap="round"/>
  <circle cx="24" cy="22" r="4.5" fill="#0B1D3A"/>
  <path d="M25 28 C18 29 14 36 15 44 C17 53 24 59 34 61 C29 55 26 48 25 40 C24 34 26 30 31 27 C29 27.5 27 28 25 28Z" fill="#0B1D3A"/>
  <circle cx="42" cy="29" r="3.7" fill="#7B8F70"/>
  <path d="M41 34 C47 34 51 41 49 48 C47 55 40 59 32 61 C37 55 40 49 40 42 C41 38 39 35 36 33 C38 33.5 39.5 34 41 34Z" fill="#7B8F70"/>
  <path d="M32 50 C27 46 24 42 25 37.5 C26 33.5 30 32.5 32.4 36.8 C35 32.5 39.5 33.6 40.2 38 C41 42.5 36.5 46 32 50Z" fill="#FFFDF8"/>
  <circle cx="32" cy="42" r="8" fill="#DAA43A" opacity=".16"/>
  <path d="M35 17 l 1.3 3.7 l 3.7 1.3 l -3.7 1.3 l -1.3 3.7 l -1.3 -3.7 l -3.7 -1.3 l 3.7 -1.3z" fill="#DAA43A"/>
</svg>
